<?xml version="1.0" encoding="UTF-8"?>
<svg xmlns="http://www.w3.org/2000/svg" width="580" height="391" viewBox="0 0 580 391">
  <rect width="100%" height="100%" fill="#0d1117" rx="8"/>
  <text x="20" y="16" fill="#e6edf3" font-size="16" font-weight="600" font-family="system-ui, sans-serif">LLM Token Activity</text>
  <rect x="20" y="20" width="60.5" height="18" rx="9" fill="#30363d"/>
    <circle cx="30" cy="29" r="4" fill="#10b981"/>
    <text x="38" y="33" fill="#e6edf3" font-size="10" font-family="system-ui, sans-serif">Codex</text><rect x="88.5" y="20" width="67" height="18" rx="9" fill="#30363d"/>
    <circle cx="98.5" cy="29" r="4" fill="#a855f7"/>
    <text x="106.5" y="33" fill="#e6edf3" font-size="10" font-family="system-ui, sans-serif">Cursor</text><rect x="163.5" y="20" width="99.5" height="18" rx="9" fill="#30363d"/>
    <circle cx="173.5" cy="29" r="4" fill="#f97316"/>
    <text x="181.5" y="33" fill="#e6edf3" font-size="10" font-family="system-ui, sans-serif">Claude Code</text><rect x="271" y="20" width="67" height="18" rx="9" fill="#30363d"/>
    <circle cx="281" cy="29" r="4" fill="#94a3b8"/>
    <text x="289" y="33" fill="#e6edf3" font-size="10" font-family="system-ui, sans-serif">Custom</text>
  <text x="20" y="48" fill="#8b949e" font-size="10" font-family="system-ui, sans-serif">May</text><text x="326" y="48" fill="#8b949e" font-size="10" font-family="system-ui, sans-serif">Jun</text>
  <rect x="20" y="58" width="15" height="15" rx="2" fill="#161b22"><title>2026-05-15: 0 tokens</title></rect><rect x="38" y="58" width="15" height="15" rx="2" fill="#161b22"><title>2026-05-16: 0 tokens</title></rect><rect x="56" y="58" width="15" height="15" rx="2" fill="#161b22"><title>2026-05-17: 0 tokens</title></rect><rect x="74" y="58" width="15" height="15" rx="2" fill="#0e4429"><title>2026-05-18: 885.6K tokens
Codex: 885.6K</title></rect><rect x="92" y="58" width="15" height="15" rx="2" fill="#0e4429"><title>2026-05-19: 2.5M tokens
Codex: 2.5M</title></rect><rect x="110" y="58" width="15" height="15" rx="2" fill="#161b22"><title>2026-05-20: 0 tokens</title></rect><rect x="128" y="58" width="15" height="15" rx="2" fill="#161b22"><title>2026-05-21: 0 tokens</title></rect><rect x="146" y="58" width="15" height="15" rx="2" fill="#161b22"><title>2026-05-22: 0 tokens</title></rect><rect x="164" y="58" width="15" height="15" rx="2" fill="#161b22"><title>2026-05-23: 0 tokens</title></rect><rect x="182" y="58" width="15" height="15" rx="2" fill="#0e4429"><title>2026-05-24: 2.8M tokens
Codex: 2.8M</title></rect><rect x="200" y="58" width="15" height="15" rx="2" fill="#161b22"><title>2026-05-25: 0 tokens</title></rect><rect x="218" y="58" width="15" height="15" rx="2" fill="#0e4429"><title>2026-05-26: 2.3M tokens
Codex: 2.3M</title></rect><rect x="236" y="58" width="15" height="15" rx="2" fill="#0e4429"><title>2026-05-27: 2.0M tokens
Codex: 2.0M</title></rect><rect x="254" y="58" width="15" height="15" rx="2" fill="#006d32"><title>2026-05-28: 5.3M tokens
Codex: 5.3M</title></rect><rect x="272" y="58" width="15" height="15" rx="2" fill="#39d353"><title>2026-05-29: 159.5M tokens
Codex: 159.5M</title></rect><rect x="290" y="58" width="15" height="15" rx="2" fill="#39d353"><title>2026-05-30: 184.9M tokens
Codex: 184.9M</title></rect><rect x="308" y="58" width="15" height="15" rx="2" fill="#26a641"><title>2026-05-31: 35.7M tokens
Codex: 35.7M</title></rect><rect x="326" y="58" width="15" height="15" rx="2" fill="#006d32"><title>2026-06-01: 8.4M tokens
Codex: 8.3M
Cursor: 165.0K</title></rect><rect x="344" y="58" width="15" height="15" rx="2" fill="#0e4429"><title>2026-06-02: 1.3M tokens
Codex: 1.3M</title></rect><rect x="362" y="58" width="15" height="15" rx="2" fill="#26a641"><title>2026-06-03: 19.9M tokens
Codex: 19.8M
Claude Code: 126.0K</title></rect><rect x="380" y="58" width="15" height="15" rx="2" fill="#26a641"><title>2026-06-04: 36.0M tokens
Codex: 36.0M</title></rect><rect x="398" y="58" width="15" height="15" rx="2" fill="#26a641"><title>2026-06-05: 51.8M tokens
Codex: 51.8M</title></rect><rect x="416" y="58" width="15" height="15" rx="2" fill="#39d353"><title>2026-06-06: 98.3M tokens
Codex: 98.3M</title></rect><rect x="434" y="58" width="15" height="15" rx="2" fill="#26a641"><title>2026-06-07: 49.6M tokens
Codex: 49.6M</title></rect><rect x="452" y="58" width="15" height="15" rx="2" fill="#006d32"><title>2026-06-08: 7.1M tokens
Codex: 7.1M</title></rect><rect x="470" y="58" width="15" height="15" rx="2" fill="#006d32"><title>2026-06-09: 3.7M tokens
Codex: 3.7M</title></rect><rect x="488" y="58" width="15" height="15" rx="2" fill="#39d353"><title>2026-06-10: 148.4M tokens
Codex: 148.3M
Custom: 15.4K</title></rect><rect x="506" y="58" width="15" height="15" rx="2" fill="#39d353"><title>2026-06-11: 199.8M tokens
Codex: 199.8M
Custom: 17.5K</title></rect><rect x="524" y="58" width="15" height="15" rx="2" fill="#006d32"><title>2026-06-12: 4.9M tokens
Codex: 4.9M</title></rect><rect x="542" y="58" width="15" height="15" rx="2" fill="#006d32"><title>2026-06-13: 16.3M tokens
Codex: 16.3M</title></rect>
  
  <text x="20" y="79" fill="#8b949e" font-size="10" font-family="system-ui, sans-serif">Less</text>
  <rect x="20" y="85" width="15" height="15" rx="2" fill="#161b22"/><rect x="38" y="85" width="15" height="15" rx="2" fill="#0e4429"/><rect x="56" y="85" width="15" height="15" rx="2" fill="#006d32"/><rect x="74" y="85" width="15" height="15" rx="2" fill="#26a641"/><rect x="92" y="85" width="15" height="15" rx="2" fill="#39d353"/>
  <text x="118" y="88" fill="#8b949e" font-size="10" font-family="system-ui, sans-serif">More</text>
  <text x="20" y="123" fill="#e6edf3" font-size="14" font-weight="600" font-family="system-ui, sans-serif">Stats</text>
    <text x="20" y="145" fill="#8b949e" font-size="11" font-family="system-ui, sans-serif">Total tokens</text>
    <text x="20" y="169" fill="#e6edf3" font-size="20" font-weight="700" font-family="system-ui, sans-serif">1041.5M</text>
    <text x="155" y="145" fill="#8b949e" font-size="11" font-family="system-ui, sans-serif">Active days</text>
    <text x="155" y="165" fill="#e6edf3" font-size="16" font-weight="400" font-family="system-ui, sans-serif">22</text>
    <text x="290" y="145" fill="#8b949e" font-size="11" font-family="system-ui, sans-serif">Current streak</text>
    <text x="290" y="165" fill="#e6edf3" font-size="16" font-weight="400" font-family="system-ui, sans-serif">19 days</text>
    <text x="425" y="145" fill="#8b949e" font-size="11" font-family="system-ui, sans-serif">Longest streak</text>
    <text x="425" y="165" fill="#e6edf3" font-size="16" font-weight="400" font-family="system-ui, sans-serif">19 days</text>
  <text x="20" y="197" fill="#8b949e" font-size="11" font-family="system-ui, sans-serif">Platforms tracked</text>
  <text x="140" y="197" fill="#e6edf3" font-size="14" font-family="system-ui, sans-serif">4</text>
  <text x="20" y="233" fill="#e6edf3" font-size="12" font-weight="600" font-family="system-ui, sans-serif">Platform Usage</text>
  <text x="20" y="257" fill="#e6edf3" font-size="11" font-family="system-ui, sans-serif">Codex</text>
  <rect x="112" y="249" width="344" height="10" rx="3" fill="#30363d"/>
  <rect x="112" y="249" width="344" height="10" rx="3" fill="#10b981"><title>Codex: 1041.1M (100.0%)</title></rect>
  <text x="464" y="257" fill="#8b949e" font-size="10" font-family="system-ui, sans-serif">1041.1M (100.0%)</text>
  <text x="20" y="287" fill="#e6edf3" font-size="11" font-family="system-ui, sans-serif">Cursor</text>
  <rect x="112" y="279" width="344" height="10" rx="3" fill="#30363d"/>
  <rect x="112" y="279" width="3" height="10" rx="3" fill="#a855f7"><title>Cursor: 165.0K (0.0%)</title></rect>
  <text x="464" y="287" fill="#8b949e" font-size="10" font-family="system-ui, sans-serif">165.0K (0.0%)</text>
  <text x="20" y="317" fill="#e6edf3" font-size="11" font-family="system-ui, sans-serif">Claude Code</text>
  <rect x="112" y="309" width="344" height="10" rx="3" fill="#30363d"/>
  <rect x="112" y="309" width="3" height="10" rx="3" fill="#f97316"><title>Claude Code: 126.0K (0.0%)</title></rect>
  <text x="464" y="317" fill="#8b949e" font-size="10" font-family="system-ui, sans-serif">126.0K (0.0%)</text>
  <text x="20" y="347" fill="#e6edf3" font-size="11" font-family="system-ui, sans-serif">Custom</text>
  <rect x="112" y="339" width="344" height="10" rx="3" fill="#30363d"/>
  <rect x="112" y="339" width="3" height="10" rx="3" fill="#94a3b8"><title>Custom: 32.9K (0.0%)</title></rect>
  <text x="464" y="347" fill="#8b949e" font-size="10" font-family="system-ui, sans-serif">32.9K (0.0%)</text>
</svg>