<?xml version="1.0" encoding="UTF-8"?>
<svg xmlns="http://www.w3.org/2000/svg" width="1095" height="369" viewBox="0 0 1095 369">
  <rect width="100%" height="100%" fill="#0d1117" rx="8"/>
  <text x="20" y="16" fill="#e6edf3" font-size="16" font-weight="600" font-family="system-ui, sans-serif">LLM Token Activity</text>
  <rect x="20" y="20" width="60.5" height="18" rx="9" fill="#30363d"/>
    <circle cx="30" cy="29" r="4" fill="#10b981"/>
    <text x="38" y="33" fill="#e6edf3" font-size="10" font-family="system-ui, sans-serif">Codex</text><rect x="88.5" y="20" width="67" height="18" rx="9" fill="#30363d"/>
    <circle cx="98.5" cy="29" r="4" fill="#a855f7"/>
    <text x="106.5" y="33" fill="#e6edf3" font-size="10" font-family="system-ui, sans-serif">Cursor</text><rect x="163.5" y="20" width="99.5" height="18" rx="9" fill="#30363d"/>
    <circle cx="173.5" cy="29" r="4" fill="#f97316"/>
    <text x="181.5" y="33" fill="#e6edf3" font-size="10" font-family="system-ui, sans-serif">Claude Code</text><rect x="271" y="20" width="67" height="18" rx="9" fill="#30363d"/>
    <circle cx="281" cy="29" r="4" fill="#94a3b8"/>
    <text x="289" y="33" fill="#e6edf3" font-size="10" font-family="system-ui, sans-serif">Custom</text>
  <text x="20" y="48" fill="#8b949e" font-size="10" font-family="system-ui, sans-serif">Jun</text><text x="65" y="48" fill="#8b949e" font-size="10" font-family="system-ui, sans-serif">Jul</text><text x="125" y="48" fill="#8b949e" font-size="10" font-family="system-ui, sans-serif">Aug</text><text x="200" y="48" fill="#8b949e" font-size="10" font-family="system-ui, sans-serif">Sep</text><text x="260" y="48" fill="#8b949e" font-size="10" font-family="system-ui, sans-serif">Oct</text><text x="320" y="48" fill="#8b949e" font-size="10" font-family="system-ui, sans-serif">Nov</text><text x="395" y="48" fill="#8b949e" font-size="10" font-family="system-ui, sans-serif">Dec</text><text x="455" y="48" fill="#8b949e" font-size="10" font-family="system-ui, sans-serif">Jan</text><text x="530" y="48" fill="#8b949e" font-size="10" font-family="system-ui, sans-serif">Feb</text><text x="590" y="48" fill="#8b949e" font-size="10" font-family="system-ui, sans-serif">Mar</text><text x="650" y="48" fill="#8b949e" font-size="10" font-family="system-ui, sans-serif">Apr</text><text x="710" y="48" fill="#8b949e" font-size="10" font-family="system-ui, sans-serif">May</text><text x="785" y="48" fill="#8b949e" font-size="10" font-family="system-ui, sans-serif">Jun</text>
  <rect x="20" y="58" width="12" height="12" rx="2" fill="#161b22"><title>2025-06-14: 0 tokens</title></rect><rect x="20" y="73" width="12" height="12" rx="2" fill="#161b22"><title>2025-06-15: 0 tokens</title></rect><rect x="20" y="88" width="12" height="12" rx="2" fill="#161b22"><title>2025-06-16: 0 tokens</title></rect><rect x="20" y="103" width="12" height="12" rx="2" fill="#161b22"><title>2025-06-17: 0 tokens</title></rect><rect x="20" y="118" width="12" height="12" rx="2" fill="#161b22"><title>2025-06-18: 0 tokens</title></rect><rect x="20" y="133" width="12" height="12" rx="2" fill="#161b22"><title>2025-06-19: 0 tokens</title></rect><rect x="20" y="148" width="12" height="12" rx="2" fill="#161b22"><title>2025-06-20: 0 tokens</title></rect><rect x="35" y="58" width="12" height="12" rx="2" fill="#161b22"><title>2025-06-21: 0 tokens</title></rect><rect x="35" y="73" width="12" height="12" rx="2" fill="#161b22"><title>2025-06-22: 0 tokens</title></rect><rect x="35" y="88" width="12" height="12" rx="2" fill="#161b22"><title>2025-06-23: 0 tokens</title></rect><rect x="35" y="103" width="12" height="12" rx="2" fill="#161b22"><title>2025-06-24: 0 tokens</title></rect><rect x="35" y="118" width="12" height="12" rx="2" fill="#161b22"><title>2025-06-25: 0 tokens</title></rect><rect x="35" y="133" width="12" height="12" rx="2" fill="#161b22"><title>2025-06-26: 0 tokens</title></rect><rect x="35" y="148" width="12" height="12" rx="2" fill="#161b22"><title>2025-06-27: 0 tokens</title></rect><rect x="50" y="58" width="12" height="12" rx="2" fill="#161b22"><title>2025-06-28: 0 tokens</title></rect><rect x="50" y="73" width="12" height="12" rx="2" fill="#161b22"><title>2025-06-29: 0 tokens</title></rect><rect x="50" y="88" width="12" height="12" rx="2" fill="#161b22"><title>2025-06-30: 0 tokens</title></rect><rect x="50" y="103" width="12" height="12" rx="2" fill="#161b22"><title>2025-07-01: 0 tokens</title></rect><rect x="50" y="118" width="12" height="12" rx="2" fill="#161b22"><title>2025-07-02: 0 tokens</title></rect><rect x="50" y="133" width="12" height="12" rx="2" fill="#161b22"><title>2025-07-03: 0 tokens</title></rect><rect x="50" y="148" width="12" height="12" rx="2" fill="#161b22"><title>2025-07-04: 0 tokens</title></rect><rect x="65" y="58" width="12" height="12" rx="2" fill="#161b22"><title>2025-07-05: 0 tokens</title></rect><rect x="65" y="73" width="12" height="12" rx="2" fill="#161b22"><title>2025-07-06: 0 tokens</title></rect><rect x="65" y="88" width="12" height="12" rx="2" fill="#161b22"><title>2025-07-07: 0 tokens</title></rect><rect x="65" y="103" width="12" height="12" rx="2" fill="#161b22"><title>2025-07-08: 0 tokens</title></rect><rect x="65" y="118" width="12" height="12" rx="2" fill="#161b22"><title>2025-07-09: 0 tokens</title></rect><rect x="65" y="133" width="12" height="12" rx="2" fill="#161b22"><title>2025-07-10: 0 tokens</title></rect><rect x="65" y="148" width="12" height="12" rx="2" fill="#161b22"><title>2025-07-11: 0 tokens</title></rect><rect x="80" y="58" width="12" height="12" rx="2" fill="#161b22"><title>2025-07-12: 0 tokens</title></rect><rect x="80" y="73" width="12" height="12" rx="2" fill="#161b22"><title>2025-07-13: 0 tokens</title></rect><rect x="80" y="88" width="12" height="12" rx="2" fill="#161b22"><title>2025-07-14: 0 tokens</title></rect><rect x="80" y="103" width="12" height="12" rx="2" fill="#161b22"><title>2025-07-15: 0 tokens</title></rect><rect x="80" y="118" width="12" height="12" rx="2" fill="#161b22"><title>2025-07-16: 0 tokens</title></rect><rect x="80" y="133" width="12" height="12" rx="2" fill="#161b22"><title>2025-07-17: 0 tokens</title></rect><rect x="80" y="148" width="12" height="12" rx="2" fill="#161b22"><title>2025-07-18: 0 tokens</title></rect><rect x="95" y="58" width="12" height="12" rx="2" fill="#161b22"><title>2025-07-19: 0 tokens</title></rect><rect x="95" y="73" width="12" height="12" rx="2" fill="#161b22"><title>2025-07-20: 0 tokens</title></rect><rect x="95" y="88" width="12" height="12" rx="2" fill="#161b22"><title>2025-07-21: 0 tokens</title></rect><rect x="95" y="103" width="12" height="12" rx="2" fill="#161b22"><title>2025-07-22: 0 tokens</title></rect><rect x="95" y="118" width="12" height="12" rx="2" fill="#161b22"><title>2025-07-23: 0 tokens</title></rect><rect x="95" y="133" width="12" height="12" rx="2" fill="#161b22"><title>2025-07-24: 0 tokens</title></rect><rect x="95" y="148" width="12" height="12" rx="2" fill="#161b22"><title>2025-07-25: 0 tokens</title></rect><rect x="110" y="58" width="12" height="12" rx="2" fill="#161b22"><title>2025-07-26: 0 tokens</title></rect><rect x="110" y="73" width="12" height="12" rx="2" fill="#161b22"><title>2025-07-27: 0 tokens</title></rect><rect x="110" y="88" width="12" height="12" rx="2" fill="#161b22"><title>2025-07-28: 0 tokens</title></rect><rect x="110" y="103" width="12" height="12" rx="2" fill="#161b22"><title>2025-07-29: 0 tokens</title></rect><rect x="110" y="118" width="12" height="12" rx="2" fill="#161b22"><title>2025-07-30: 0 tokens</title></rect><rect x="110" y="133" width="12" height="12" rx="2" fill="#161b22"><title>2025-07-31: 0 tokens</title></rect><rect x="110" y="148" width="12" height="12" rx="2" fill="#161b22"><title>2025-08-01: 0 tokens</title></rect><rect x="125" y="58" width="12" height="12" rx="2" fill="#161b22"><title>2025-08-02: 0 tokens</title></rect><rect x="125" y="73" width="12" height="12" rx="2" fill="#161b22"><title>2025-08-03: 0 tokens</title></rect><rect x="125" y="88" width="12" height="12" rx="2" fill="#161b22"><title>2025-08-04: 0 tokens</title></rect><rect x="125" y="103" width="12" height="12" rx="2" fill="#161b22"><title>2025-08-05: 0 tokens</title></rect><rect x="125" y="118" width="12" height="12" rx="2" fill="#161b22"><title>2025-08-06: 0 tokens</title></rect><rect x="125" y="133" width="12" height="12" rx="2" fill="#161b22"><title>2025-08-07: 0 tokens</title></rect><rect x="125" y="148" width="12" height="12" rx="2" fill="#161b22"><title>2025-08-08: 0 tokens</title></rect><rect x="140" y="58" width="12" height="12" rx="2" fill="#161b22"><title>2025-08-09: 0 tokens</title></rect><rect x="140" y="73" width="12" height="12" rx="2" fill="#161b22"><title>2025-08-10: 0 tokens</title></rect><rect x="140" y="88" width="12" height="12" rx="2" fill="#161b22"><title>2025-08-11: 0 tokens</title></rect><rect x="140" y="103" width="12" height="12" rx="2" fill="#161b22"><title>2025-08-12: 0 tokens</title></rect><rect x="140" y="118" width="12" height="12" rx="2" fill="#161b22"><title>2025-08-13: 0 tokens</title></rect><rect x="140" y="133" width="12" height="12" rx="2" fill="#161b22"><title>2025-08-14: 0 tokens</title></rect><rect x="140" y="148" width="12" height="12" rx="2" fill="#161b22"><title>2025-08-15: 0 tokens</title></rect><rect x="155" y="58" width="12" height="12" rx="2" fill="#161b22"><title>2025-08-16: 0 tokens</title></rect><rect x="155" y="73" width="12" height="12" rx="2" fill="#161b22"><title>2025-08-17: 0 tokens</title></rect><rect x="155" y="88" width="12" height="12" rx="2" fill="#161b22"><title>2025-08-18: 0 tokens</title></rect><rect x="155" y="103" width="12" height="12" rx="2" fill="#161b22"><title>2025-08-19: 0 tokens</title></rect><rect x="155" y="118" width="12" height="12" rx="2" fill="#161b22"><title>2025-08-20: 0 tokens</title></rect><rect x="155" y="133" width="12" height="12" rx="2" fill="#161b22"><title>2025-08-21: 0 tokens</title></rect><rect x="155" y="148" width="12" height="12" rx="2" fill="#161b22"><title>2025-08-22: 0 tokens</title></rect><rect x="170" y="58" width="12" height="12" rx="2" fill="#161b22"><title>2025-08-23: 0 tokens</title></rect><rect x="170" y="73" width="12" height="12" rx="2" fill="#161b22"><title>2025-08-24: 0 tokens</title></rect><rect x="170" y="88" width="12" height="12" rx="2" fill="#161b22"><title>2025-08-25: 0 tokens</title></rect><rect x="170" y="103" width="12" height="12" rx="2" fill="#161b22"><title>2025-08-26: 0 tokens</title></rect><rect x="170" y="118" width="12" height="12" rx="2" fill="#161b22"><title>2025-08-27: 0 tokens</title></rect><rect x="170" y="133" width="12" height="12" rx="2" fill="#161b22"><title>2025-08-28: 0 tokens</title></rect><rect x="170" y="148" width="12" height="12" rx="2" fill="#161b22"><title>2025-08-29: 0 tokens</title></rect><rect x="185" y="58" width="12" height="12" rx="2" fill="#161b22"><title>2025-08-30: 0 tokens</title></rect><rect x="185" y="73" width="12" height="12" rx="2" fill="#161b22"><title>2025-08-31: 0 tokens</title></rect><rect x="185" y="88" width="12" height="12" rx="2" fill="#161b22"><title>2025-09-01: 0 tokens</title></rect><rect x="185" y="103" width="12" height="12" rx="2" fill="#161b22"><title>2025-09-02: 0 tokens</title></rect><rect x="185" y="118" width="12" height="12" rx="2" fill="#161b22"><title>2025-09-03: 0 tokens</title></rect><rect x="185" y="133" width="12" height="12" rx="2" fill="#161b22"><title>2025-09-04: 0 tokens</title></rect><rect x="185" y="148" width="12" height="12" rx="2" fill="#161b22"><title>2025-09-05: 0 tokens</title></rect><rect x="200" y="58" width="12" height="12" rx="2" fill="#161b22"><title>2025-09-06: 0 tokens</title></rect><rect x="200" y="73" width="12" height="12" rx="2" fill="#161b22"><title>2025-09-07: 0 tokens</title></rect><rect x="200" y="88" width="12" height="12" rx="2" fill="#161b22"><title>2025-09-08: 0 tokens</title></rect><rect x="200" y="103" width="12" height="12" rx="2" fill="#161b22"><title>2025-09-09: 0 tokens</title></rect><rect x="200" y="118" width="12" height="12" rx="2" fill="#161b22"><title>2025-09-10: 0 tokens</title></rect><rect x="200" y="133" width="12" height="12" rx="2" fill="#161b22"><title>2025-09-11: 0 tokens</title></rect><rect x="200" y="148" width="12" height="12" rx="2" fill="#161b22"><title>2025-09-12: 0 tokens</title></rect><rect x="215" y="58" width="12" height="12" rx="2" fill="#161b22"><title>2025-09-13: 0 tokens</title></rect><rect x="215" y="73" width="12" height="12" rx="2" fill="#161b22"><title>2025-09-14: 0 tokens</title></rect><rect x="215" y="88" width="12" height="12" rx="2" fill="#161b22"><title>2025-09-15: 0 tokens</title></rect><rect x="215" y="103" width="12" height="12" rx="2" fill="#161b22"><title>2025-09-16: 0 tokens</title></rect><rect x="215" y="118" width="12" height="12" rx="2" fill="#161b22"><title>2025-09-17: 0 tokens</title></rect><rect x="215" y="133" width="12" height="12" rx="2" fill="#161b22"><title>2025-09-18: 0 tokens</title></rect><rect x="215" y="148" width="12" height="12" rx="2" fill="#161b22"><title>2025-09-19: 0 tokens</title></rect><rect x="230" y="58" width="12" height="12" rx="2" fill="#161b22"><title>2025-09-20: 0 tokens</title></rect><rect x="230" y="73" width="12" height="12" rx="2" fill="#161b22"><title>2025-09-21: 0 tokens</title></rect><rect x="230" y="88" width="12" height="12" rx="2" fill="#161b22"><title>2025-09-22: 0 tokens</title></rect><rect x="230" y="103" width="12" height="12" rx="2" fill="#161b22"><title>2025-09-23: 0 tokens</title></rect><rect x="230" y="118" width="12" height="12" rx="2" fill="#161b22"><title>2025-09-24: 0 tokens</title></rect><rect x="230" y="133" width="12" height="12" rx="2" fill="#161b22"><title>2025-09-25: 0 tokens</title></rect><rect x="230" y="148" width="12" height="12" rx="2" fill="#161b22"><title>2025-09-26: 0 tokens</title></rect><rect x="245" y="58" width="12" height="12" rx="2" fill="#161b22"><title>2025-09-27: 0 tokens</title></rect><rect x="245" y="73" width="12" height="12" rx="2" fill="#161b22"><title>2025-09-28: 0 tokens</title></rect><rect x="245" y="88" width="12" height="12" rx="2" fill="#161b22"><title>2025-09-29: 0 tokens</title></rect><rect x="245" y="103" width="12" height="12" rx="2" fill="#161b22"><title>2025-09-30: 0 tokens</title></rect><rect x="245" y="118" width="12" height="12" rx="2" fill="#161b22"><title>2025-10-01: 0 tokens</title></rect><rect x="245" y="133" width="12" height="12" rx="2" fill="#161b22"><title>2025-10-02: 0 tokens</title></rect><rect x="245" y="148" width="12" height="12" rx="2" fill="#161b22"><title>2025-10-03: 0 tokens</title></rect><rect x="260" y="58" width="12" height="12" rx="2" fill="#161b22"><title>2025-10-04: 0 tokens</title></rect><rect x="260" y="73" width="12" height="12" rx="2" fill="#161b22"><title>2025-10-05: 0 tokens</title></rect><rect x="260" y="88" width="12" height="12" rx="2" fill="#161b22"><title>2025-10-06: 0 tokens</title></rect><rect x="260" y="103" width="12" height="12" rx="2" fill="#161b22"><title>2025-10-07: 0 tokens</title></rect><rect x="260" y="118" width="12" height="12" rx="2" fill="#161b22"><title>2025-10-08: 0 tokens</title></rect><rect x="260" y="133" width="12" height="12" rx="2" fill="#0e4429"><title>2025-10-09: 76.6K tokens
Cursor: 76.6K</title></rect><rect x="260" y="148" width="12" height="12" rx="2" fill="#161b22"><title>2025-10-10: 0 tokens</title></rect><rect x="275" y="58" width="12" height="12" rx="2" fill="#161b22"><title>2025-10-11: 0 tokens</title></rect><rect x="275" y="73" width="12" height="12" rx="2" fill="#161b22"><title>2025-10-12: 0 tokens</title></rect><rect x="275" y="88" width="12" height="12" rx="2" fill="#161b22"><title>2025-10-13: 0 tokens</title></rect><rect x="275" y="103" width="12" height="12" rx="2" fill="#161b22"><title>2025-10-14: 0 tokens</title></rect><rect x="275" y="118" width="12" height="12" rx="2" fill="#161b22"><title>2025-10-15: 0 tokens</title></rect><rect x="275" y="133" width="12" height="12" rx="2" fill="#161b22"><title>2025-10-16: 0 tokens</title></rect><rect x="275" y="148" width="12" height="12" rx="2" fill="#161b22"><title>2025-10-17: 0 tokens</title></rect><rect x="290" y="58" width="12" height="12" rx="2" fill="#161b22"><title>2025-10-18: 0 tokens</title></rect><rect x="290" y="73" width="12" height="12" rx="2" fill="#161b22"><title>2025-10-19: 0 tokens</title></rect><rect x="290" y="88" width="12" height="12" rx="2" fill="#161b22"><title>2025-10-20: 0 tokens</title></rect><rect x="290" y="103" width="12" height="12" rx="2" fill="#161b22"><title>2025-10-21: 0 tokens</title></rect><rect x="290" y="118" width="12" height="12" rx="2" fill="#161b22"><title>2025-10-22: 0 tokens</title></rect><rect x="290" y="133" width="12" height="12" rx="2" fill="#161b22"><title>2025-10-23: 0 tokens</title></rect><rect x="290" y="148" width="12" height="12" rx="2" fill="#161b22"><title>2025-10-24: 0 tokens</title></rect><rect x="305" y="58" width="12" height="12" rx="2" fill="#161b22"><title>2025-10-25: 0 tokens</title></rect><rect x="305" y="73" width="12" height="12" rx="2" fill="#161b22"><title>2025-10-26: 0 tokens</title></rect><rect x="305" y="88" width="12" height="12" rx="2" fill="#161b22"><title>2025-10-27: 0 tokens</title></rect><rect x="305" y="103" width="12" height="12" rx="2" fill="#161b22"><title>2025-10-28: 0 tokens</title></rect><rect x="305" y="118" width="12" height="12" rx="2" fill="#161b22"><title>2025-10-29: 0 tokens</title></rect><rect x="305" y="133" width="12" height="12" rx="2" fill="#161b22"><title>2025-10-30: 0 tokens</title></rect><rect x="305" y="148" width="12" height="12" rx="2" fill="#161b22"><title>2025-10-31: 0 tokens</title></rect><rect x="320" y="58" width="12" height="12" rx="2" fill="#161b22"><title>2025-11-01: 0 tokens</title></rect><rect x="320" y="73" width="12" height="12" rx="2" fill="#161b22"><title>2025-11-02: 0 tokens</title></rect><rect x="320" y="88" width="12" height="12" rx="2" fill="#161b22"><title>2025-11-03: 0 tokens</title></rect><rect x="320" y="103" width="12" height="12" rx="2" fill="#161b22"><title>2025-11-04: 0 tokens</title></rect><rect x="320" y="118" width="12" height="12" rx="2" fill="#161b22"><title>2025-11-05: 0 tokens</title></rect><rect x="320" y="133" width="12" height="12" rx="2" fill="#161b22"><title>2025-11-06: 0 tokens</title></rect><rect x="320" y="148" width="12" height="12" rx="2" fill="#161b22"><title>2025-11-07: 0 tokens</title></rect><rect x="335" y="58" width="12" height="12" rx="2" fill="#161b22"><title>2025-11-08: 0 tokens</title></rect><rect x="335" y="73" width="12" height="12" rx="2" fill="#161b22"><title>2025-11-09: 0 tokens</title></rect><rect x="335" y="88" width="12" height="12" rx="2" fill="#161b22"><title>2025-11-10: 0 tokens</title></rect><rect x="335" y="103" width="12" height="12" rx="2" fill="#161b22"><title>2025-11-11: 0 tokens</title></rect><rect x="335" y="118" width="12" height="12" rx="2" fill="#161b22"><title>2025-11-12: 0 tokens</title></rect><rect x="335" y="133" width="12" height="12" rx="2" fill="#161b22"><title>2025-11-13: 0 tokens</title></rect><rect x="335" y="148" width="12" height="12" rx="2" fill="#161b22"><title>2025-11-14: 0 tokens</title></rect><rect x="350" y="58" width="12" height="12" rx="2" fill="#161b22"><title>2025-11-15: 0 tokens</title></rect><rect x="350" y="73" width="12" height="12" rx="2" fill="#161b22"><title>2025-11-16: 0 tokens</title></rect><rect x="350" y="88" width="12" height="12" rx="2" fill="#161b22"><title>2025-11-17: 0 tokens</title></rect><rect x="350" y="103" width="12" height="12" rx="2" fill="#161b22"><title>2025-11-18: 0 tokens</title></rect><rect x="350" y="118" width="12" height="12" rx="2" fill="#161b22"><title>2025-11-19: 0 tokens</title></rect><rect x="350" y="133" width="12" height="12" rx="2" fill="#161b22"><title>2025-11-20: 0 tokens</title></rect><rect x="350" y="148" width="12" height="12" rx="2" fill="#161b22"><title>2025-11-21: 0 tokens</title></rect><rect x="365" y="58" width="12" height="12" rx="2" fill="#161b22"><title>2025-11-22: 0 tokens</title></rect><rect x="365" y="73" width="12" height="12" rx="2" fill="#161b22"><title>2025-11-23: 0 tokens</title></rect><rect x="365" y="88" width="12" height="12" rx="2" fill="#161b22"><title>2025-11-24: 0 tokens</title></rect><rect x="365" y="103" width="12" height="12" rx="2" fill="#161b22"><title>2025-11-25: 0 tokens</title></rect><rect x="365" y="118" width="12" height="12" rx="2" fill="#161b22"><title>2025-11-26: 0 tokens</title></rect><rect x="365" y="133" width="12" height="12" rx="2" fill="#161b22"><title>2025-11-27: 0 tokens</title></rect><rect x="365" y="148" width="12" height="12" rx="2" fill="#161b22"><title>2025-11-28: 0 tokens</title></rect><rect x="380" y="58" width="12" height="12" rx="2" fill="#161b22"><title>2025-11-29: 0 tokens</title></rect><rect x="380" y="73" width="12" height="12" rx="2" fill="#161b22"><title>2025-11-30: 0 tokens</title></rect><rect x="380" y="88" width="12" height="12" rx="2" fill="#161b22"><title>2025-12-01: 0 tokens</title></rect><rect x="380" y="103" width="12" height="12" rx="2" fill="#161b22"><title>2025-12-02: 0 tokens</title></rect><rect x="380" y="118" width="12" height="12" rx="2" fill="#161b22"><title>2025-12-03: 0 tokens</title></rect><rect x="380" y="133" width="12" height="12" rx="2" fill="#161b22"><title>2025-12-04: 0 tokens</title></rect><rect x="380" y="148" width="12" height="12" rx="2" fill="#161b22"><title>2025-12-05: 0 tokens</title></rect><rect x="395" y="58" width="12" height="12" rx="2" fill="#161b22"><title>2025-12-06: 0 tokens</title></rect><rect x="395" y="73" width="12" height="12" rx="2" fill="#161b22"><title>2025-12-07: 0 tokens</title></rect><rect x="395" y="88" width="12" height="12" rx="2" fill="#161b22"><title>2025-12-08: 0 tokens</title></rect><rect x="395" y="103" width="12" height="12" rx="2" fill="#161b22"><title>2025-12-09: 0 tokens</title></rect><rect x="395" y="118" width="12" height="12" rx="2" fill="#161b22"><title>2025-12-10: 0 tokens</title></rect><rect x="395" y="133" width="12" height="12" rx="2" fill="#161b22"><title>2025-12-11: 0 tokens</title></rect><rect x="395" y="148" width="12" height="12" rx="2" fill="#161b22"><title>2025-12-12: 0 tokens</title></rect><rect x="410" y="58" width="12" height="12" rx="2" fill="#161b22"><title>2025-12-13: 0 tokens</title></rect><rect x="410" y="73" width="12" height="12" rx="2" fill="#161b22"><title>2025-12-14: 0 tokens</title></rect><rect x="410" y="88" width="12" height="12" rx="2" fill="#161b22"><title>2025-12-15: 0 tokens</title></rect><rect x="410" y="103" width="12" height="12" rx="2" fill="#161b22"><title>2025-12-16: 0 tokens</title></rect><rect x="410" y="118" width="12" height="12" rx="2" fill="#161b22"><title>2025-12-17: 0 tokens</title></rect><rect x="410" y="133" width="12" height="12" rx="2" fill="#161b22"><title>2025-12-18: 0 tokens</title></rect><rect x="410" y="148" width="12" height="12" rx="2" fill="#161b22"><title>2025-12-19: 0 tokens</title></rect><rect x="425" y="58" width="12" height="12" rx="2" fill="#161b22"><title>2025-12-20: 0 tokens</title></rect><rect x="425" y="73" width="12" height="12" rx="2" fill="#161b22"><title>2025-12-21: 0 tokens</title></rect><rect x="425" y="88" width="12" height="12" rx="2" fill="#161b22"><title>2025-12-22: 0 tokens</title></rect><rect x="425" y="103" width="12" height="12" rx="2" fill="#161b22"><title>2025-12-23: 0 tokens</title></rect><rect x="425" y="118" width="12" height="12" rx="2" fill="#161b22"><title>2025-12-24: 0 tokens</title></rect><rect x="425" y="133" width="12" height="12" rx="2" fill="#161b22"><title>2025-12-25: 0 tokens</title></rect><rect x="425" y="148" width="12" height="12" rx="2" fill="#161b22"><title>2025-12-26: 0 tokens</title></rect><rect x="440" y="58" width="12" height="12" rx="2" fill="#161b22"><title>2025-12-27: 0 tokens</title></rect><rect x="440" y="73" width="12" height="12" rx="2" fill="#161b22"><title>2025-12-28: 0 tokens</title></rect><rect x="440" y="88" width="12" height="12" rx="2" fill="#161b22"><title>2025-12-29: 0 tokens</title></rect><rect x="440" y="103" width="12" height="12" rx="2" fill="#161b22"><title>2025-12-30: 0 tokens</title></rect><rect x="440" y="118" width="12" height="12" rx="2" fill="#161b22"><title>2025-12-31: 0 tokens</title></rect><rect x="440" y="133" width="12" height="12" rx="2" fill="#161b22"><title>2026-01-01: 0 tokens</title></rect><rect x="440" y="148" width="12" height="12" rx="2" fill="#161b22"><title>2026-01-02: 0 tokens</title></rect><rect x="455" y="58" width="12" height="12" rx="2" fill="#161b22"><title>2026-01-03: 0 tokens</title></rect><rect x="455" y="73" width="12" height="12" rx="2" fill="#161b22"><title>2026-01-04: 0 tokens</title></rect><rect x="455" y="88" width="12" height="12" rx="2" fill="#161b22"><title>2026-01-05: 0 tokens</title></rect><rect x="455" y="103" width="12" height="12" rx="2" fill="#161b22"><title>2026-01-06: 0 tokens</title></rect><rect x="455" y="118" width="12" height="12" rx="2" fill="#161b22"><title>2026-01-07: 0 tokens</title></rect><rect x="455" y="133" width="12" height="12" rx="2" fill="#161b22"><title>2026-01-08: 0 tokens</title></rect><rect x="455" y="148" width="12" height="12" rx="2" fill="#161b22"><title>2026-01-09: 0 tokens</title></rect><rect x="470" y="58" width="12" height="12" rx="2" fill="#161b22"><title>2026-01-10: 0 tokens</title></rect><rect x="470" y="73" width="12" height="12" rx="2" fill="#161b22"><title>2026-01-11: 0 tokens</title></rect><rect x="470" y="88" width="12" height="12" rx="2" fill="#161b22"><title>2026-01-12: 0 tokens</title></rect><rect x="470" y="103" width="12" height="12" rx="2" fill="#161b22"><title>2026-01-13: 0 tokens</title></rect><rect x="470" y="118" width="12" height="12" rx="2" fill="#161b22"><title>2026-01-14: 0 tokens</title></rect><rect x="470" y="133" width="12" height="12" rx="2" fill="#161b22"><title>2026-01-15: 0 tokens</title></rect><rect x="470" y="148" width="12" height="12" rx="2" fill="#161b22"><title>2026-01-16: 0 tokens</title></rect><rect x="485" y="58" width="12" height="12" rx="2" fill="#161b22"><title>2026-01-17: 0 tokens</title></rect><rect x="485" y="73" width="12" height="12" rx="2" fill="#161b22"><title>2026-01-18: 0 tokens</title></rect><rect x="485" y="88" width="12" height="12" rx="2" fill="#0e4429"><title>2026-01-19: 76.6K tokens
Cursor: 76.6K</title></rect><rect x="485" y="103" width="12" height="12" rx="2" fill="#161b22"><title>2026-01-20: 0 tokens</title></rect><rect x="485" y="118" width="12" height="12" rx="2" fill="#161b22"><title>2026-01-21: 0 tokens</title></rect><rect x="485" y="133" width="12" height="12" rx="2" fill="#161b22"><title>2026-01-22: 0 tokens</title></rect><rect x="485" y="148" width="12" height="12" rx="2" fill="#0e4429"><title>2026-01-23: 248.5K tokens
Cursor: 248.5K</title></rect><rect x="500" y="58" width="12" height="12" rx="2" fill="#161b22"><title>2026-01-24: 0 tokens</title></rect><rect x="500" y="73" width="12" height="12" rx="2" fill="#161b22"><title>2026-01-25: 0 tokens</title></rect><rect x="500" y="88" width="12" height="12" rx="2" fill="#161b22"><title>2026-01-26: 0 tokens</title></rect><rect x="500" y="103" width="12" height="12" rx="2" fill="#161b22"><title>2026-01-27: 0 tokens</title></rect><rect x="500" y="118" width="12" height="12" rx="2" fill="#161b22"><title>2026-01-28: 0 tokens</title></rect><rect x="500" y="133" width="12" height="12" rx="2" fill="#161b22"><title>2026-01-29: 0 tokens</title></rect><rect x="500" y="148" width="12" height="12" rx="2" fill="#161b22"><title>2026-01-30: 0 tokens</title></rect><rect x="515" y="58" width="12" height="12" rx="2" fill="#161b22"><title>2026-01-31: 0 tokens</title></rect><rect x="515" y="73" width="12" height="12" rx="2" fill="#161b22"><title>2026-02-01: 0 tokens</title></rect><rect x="515" y="88" width="12" height="12" rx="2" fill="#161b22"><title>2026-02-02: 0 tokens</title></rect><rect x="515" y="103" width="12" height="12" rx="2" fill="#161b22"><title>2026-02-03: 0 tokens</title></rect><rect x="515" y="118" width="12" height="12" rx="2" fill="#161b22"><title>2026-02-04: 0 tokens</title></rect><rect x="515" y="133" width="12" height="12" rx="2" fill="#161b22"><title>2026-02-05: 0 tokens</title></rect><rect x="515" y="148" width="12" height="12" rx="2" fill="#161b22"><title>2026-02-06: 0 tokens</title></rect><rect x="530" y="58" width="12" height="12" rx="2" fill="#161b22"><title>2026-02-07: 0 tokens</title></rect><rect x="530" y="73" width="12" height="12" rx="2" fill="#161b22"><title>2026-02-08: 0 tokens</title></rect><rect x="530" y="88" width="12" height="12" rx="2" fill="#161b22"><title>2026-02-09: 0 tokens</title></rect><rect x="530" y="103" width="12" height="12" rx="2" fill="#161b22"><title>2026-02-10: 0 tokens</title></rect><rect x="530" y="118" width="12" height="12" rx="2" fill="#161b22"><title>2026-02-11: 0 tokens</title></rect><rect x="530" y="133" width="12" height="12" rx="2" fill="#161b22"><title>2026-02-12: 0 tokens</title></rect><rect x="530" y="148" width="12" height="12" rx="2" fill="#161b22"><title>2026-02-13: 0 tokens</title></rect><rect x="545" y="58" width="12" height="12" rx="2" fill="#161b22"><title>2026-02-14: 0 tokens</title></rect><rect x="545" y="73" width="12" height="12" rx="2" fill="#161b22"><title>2026-02-15: 0 tokens</title></rect><rect x="545" y="88" width="12" height="12" rx="2" fill="#161b22"><title>2026-02-16: 0 tokens</title></rect><rect x="545" y="103" width="12" height="12" rx="2" fill="#161b22"><title>2026-02-17: 0 tokens</title></rect><rect x="545" y="118" width="12" height="12" rx="2" fill="#161b22"><title>2026-02-18: 0 tokens</title></rect><rect x="545" y="133" width="12" height="12" rx="2" fill="#161b22"><title>2026-02-19: 0 tokens</title></rect><rect x="545" y="148" width="12" height="12" rx="2" fill="#161b22"><title>2026-02-20: 0 tokens</title></rect><rect x="560" y="58" width="12" height="12" rx="2" fill="#161b22"><title>2026-02-21: 0 tokens</title></rect><rect x="560" y="73" width="12" height="12" rx="2" fill="#161b22"><title>2026-02-22: 0 tokens</title></rect><rect x="560" y="88" width="12" height="12" rx="2" fill="#161b22"><title>2026-02-23: 0 tokens</title></rect><rect x="560" y="103" width="12" height="12" rx="2" fill="#161b22"><title>2026-02-24: 0 tokens</title></rect><rect x="560" y="118" width="12" height="12" rx="2" fill="#161b22"><title>2026-02-25: 0 tokens</title></rect><rect x="560" y="133" width="12" height="12" rx="2" fill="#161b22"><title>2026-02-26: 0 tokens</title></rect><rect x="560" y="148" width="12" height="12" rx="2" fill="#161b22"><title>2026-02-27: 0 tokens</title></rect><rect x="575" y="58" width="12" height="12" rx="2" fill="#161b22"><title>2026-02-28: 0 tokens</title></rect><rect x="575" y="73" width="12" height="12" rx="2" fill="#161b22"><title>2026-03-01: 0 tokens</title></rect><rect x="575" y="88" width="12" height="12" rx="2" fill="#161b22"><title>2026-03-02: 0 tokens</title></rect><rect x="575" y="103" width="12" height="12" rx="2" fill="#161b22"><title>2026-03-03: 0 tokens</title></rect><rect x="575" y="118" width="12" height="12" rx="2" fill="#161b22"><title>2026-03-04: 0 tokens</title></rect><rect x="575" y="133" width="12" height="12" rx="2" fill="#161b22"><title>2026-03-05: 0 tokens</title></rect><rect x="575" y="148" width="12" height="12" rx="2" fill="#161b22"><title>2026-03-06: 0 tokens</title></rect><rect x="590" y="58" width="12" height="12" rx="2" fill="#161b22"><title>2026-03-07: 0 tokens</title></rect><rect x="590" y="73" width="12" height="12" rx="2" fill="#161b22"><title>2026-03-08: 0 tokens</title></rect><rect x="590" y="88" width="12" height="12" rx="2" fill="#161b22"><title>2026-03-09: 0 tokens</title></rect><rect x="590" y="103" width="12" height="12" rx="2" fill="#161b22"><title>2026-03-10: 0 tokens</title></rect><rect x="590" y="118" width="12" height="12" rx="2" fill="#161b22"><title>2026-03-11: 0 tokens</title></rect><rect x="590" y="133" width="12" height="12" rx="2" fill="#161b22"><title>2026-03-12: 0 tokens</title></rect><rect x="590" y="148" width="12" height="12" rx="2" fill="#161b22"><title>2026-03-13: 0 tokens</title></rect><rect x="605" y="58" width="12" height="12" rx="2" fill="#161b22"><title>2026-03-14: 0 tokens</title></rect><rect x="605" y="73" width="12" height="12" rx="2" fill="#161b22"><title>2026-03-15: 0 tokens</title></rect><rect x="605" y="88" width="12" height="12" rx="2" fill="#161b22"><title>2026-03-16: 0 tokens</title></rect><rect x="605" y="103" width="12" height="12" rx="2" fill="#161b22"><title>2026-03-17: 0 tokens</title></rect><rect x="605" y="118" width="12" height="12" rx="2" fill="#161b22"><title>2026-03-18: 0 tokens</title></rect><rect x="605" y="133" width="12" height="12" rx="2" fill="#161b22"><title>2026-03-19: 0 tokens</title></rect><rect x="605" y="148" width="12" height="12" rx="2" fill="#161b22"><title>2026-03-20: 0 tokens</title></rect><rect x="620" y="58" width="12" height="12" rx="2" fill="#161b22"><title>2026-03-21: 0 tokens</title></rect><rect x="620" y="73" width="12" height="12" rx="2" fill="#161b22"><title>2026-03-22: 0 tokens</title></rect><rect x="620" y="88" width="12" height="12" rx="2" fill="#161b22"><title>2026-03-23: 0 tokens</title></rect><rect x="620" y="103" width="12" height="12" rx="2" fill="#161b22"><title>2026-03-24: 0 tokens</title></rect><rect x="620" y="118" width="12" height="12" rx="2" fill="#161b22"><title>2026-03-25: 0 tokens</title></rect><rect x="620" y="133" width="12" height="12" rx="2" fill="#161b22"><title>2026-03-26: 0 tokens</title></rect><rect x="620" y="148" width="12" height="12" rx="2" fill="#161b22"><title>2026-03-27: 0 tokens</title></rect><rect x="635" y="58" width="12" height="12" rx="2" fill="#161b22"><title>2026-03-28: 0 tokens</title></rect><rect x="635" y="73" width="12" height="12" rx="2" fill="#161b22"><title>2026-03-29: 0 tokens</title></rect><rect x="635" y="88" width="12" height="12" rx="2" fill="#161b22"><title>2026-03-30: 0 tokens</title></rect><rect x="635" y="103" width="12" height="12" rx="2" fill="#161b22"><title>2026-03-31: 0 tokens</title></rect><rect x="635" y="118" width="12" height="12" rx="2" fill="#161b22"><title>2026-04-01: 0 tokens</title></rect><rect x="635" y="133" width="12" height="12" rx="2" fill="#161b22"><title>2026-04-02: 0 tokens</title></rect><rect x="635" y="148" width="12" height="12" rx="2" fill="#161b22"><title>2026-04-03: 0 tokens</title></rect><rect x="650" y="58" width="12" height="12" rx="2" fill="#161b22"><title>2026-04-04: 0 tokens</title></rect><rect x="650" y="73" width="12" height="12" rx="2" fill="#161b22"><title>2026-04-05: 0 tokens</title></rect><rect x="650" y="88" width="12" height="12" rx="2" fill="#161b22"><title>2026-04-06: 0 tokens</title></rect><rect x="650" y="103" width="12" height="12" rx="2" fill="#161b22"><title>2026-04-07: 0 tokens</title></rect><rect x="650" y="118" width="12" height="12" rx="2" fill="#161b22"><title>2026-04-08: 0 tokens</title></rect><rect x="650" y="133" width="12" height="12" rx="2" fill="#161b22"><title>2026-04-09: 0 tokens</title></rect><rect x="650" y="148" width="12" height="12" rx="2" fill="#161b22"><title>2026-04-10: 0 tokens</title></rect><rect x="665" y="58" width="12" height="12" rx="2" fill="#161b22"><title>2026-04-11: 0 tokens</title></rect><rect x="665" y="73" width="12" height="12" rx="2" fill="#161b22"><title>2026-04-12: 0 tokens</title></rect><rect x="665" y="88" width="12" height="12" rx="2" fill="#161b22"><title>2026-04-13: 0 tokens</title></rect><rect x="665" y="103" width="12" height="12" rx="2" fill="#161b22"><title>2026-04-14: 0 tokens</title></rect><rect x="665" y="118" width="12" height="12" rx="2" fill="#161b22"><title>2026-04-15: 0 tokens</title></rect><rect x="665" y="133" width="12" height="12" rx="2" fill="#161b22"><title>2026-04-16: 0 tokens</title></rect><rect x="665" y="148" width="12" height="12" rx="2" fill="#161b22"><title>2026-04-17: 0 tokens</title></rect><rect x="680" y="58" width="12" height="12" rx="2" fill="#161b22"><title>2026-04-18: 0 tokens</title></rect><rect x="680" y="73" width="12" height="12" rx="2" fill="#161b22"><title>2026-04-19: 0 tokens</title></rect><rect x="680" y="88" width="12" height="12" rx="2" fill="#161b22"><title>2026-04-20: 0 tokens</title></rect><rect x="680" y="103" width="12" height="12" rx="2" fill="#161b22"><title>2026-04-21: 0 tokens</title></rect><rect x="680" y="118" width="12" height="12" rx="2" fill="#161b22"><title>2026-04-22: 0 tokens</title></rect><rect x="680" y="133" width="12" height="12" rx="2" fill="#161b22"><title>2026-04-23: 0 tokens</title></rect><rect x="680" y="148" width="12" height="12" rx="2" fill="#0e4429"><title>2026-04-24: 1.2M tokens
Codex: 1.2M</title></rect><rect x="695" y="58" width="12" height="12" rx="2" fill="#161b22"><title>2026-04-25: 0 tokens</title></rect><rect x="695" y="73" width="12" height="12" rx="2" fill="#161b22"><title>2026-04-26: 0 tokens</title></rect><rect x="695" y="88" width="12" height="12" rx="2" fill="#161b22"><title>2026-04-27: 0 tokens</title></rect><rect x="695" y="103" width="12" height="12" rx="2" fill="#161b22"><title>2026-04-28: 0 tokens</title></rect><rect x="695" y="118" width="12" height="12" rx="2" fill="#0e4429"><title>2026-04-29: 16.8K tokens
Claude Code: 16.8K</title></rect><rect x="695" y="133" width="12" height="12" rx="2" fill="#161b22"><title>2026-04-30: 0 tokens</title></rect><rect x="695" y="148" width="12" height="12" rx="2" fill="#161b22"><title>2026-05-01: 0 tokens</title></rect><rect x="710" y="58" width="12" height="12" rx="2" fill="#161b22"><title>2026-05-02: 0 tokens</title></rect><rect x="710" y="73" width="12" height="12" rx="2" fill="#161b22"><title>2026-05-03: 0 tokens</title></rect><rect x="710" y="88" width="12" height="12" rx="2" fill="#161b22"><title>2026-05-04: 0 tokens</title></rect><rect x="710" y="103" width="12" height="12" rx="2" fill="#161b22"><title>2026-05-05: 0 tokens</title></rect><rect x="710" y="118" width="12" height="12" rx="2" fill="#161b22"><title>2026-05-06: 0 tokens</title></rect><rect x="710" y="133" width="12" height="12" rx="2" fill="#0e4429"><title>2026-05-07: 25.9K tokens
Codex: 25.9K</title></rect><rect x="710" y="148" width="12" height="12" rx="2" fill="#006d32"><title>2026-05-08: 2.9M tokens
Codex: 2.9M</title></rect><rect x="725" y="58" width="12" height="12" rx="2" fill="#161b22"><title>2026-05-09: 0 tokens</title></rect><rect x="725" y="73" width="12" height="12" rx="2" fill="#161b22"><title>2026-05-10: 0 tokens</title></rect><rect x="725" y="88" width="12" height="12" rx="2" fill="#26a641"><title>2026-05-11: 17.8M tokens
Codex: 17.8M</title></rect><rect x="725" y="103" width="12" height="12" rx="2" fill="#161b22"><title>2026-05-12: 0 tokens</title></rect><rect x="725" y="118" width="12" height="12" rx="2" fill="#161b22"><title>2026-05-13: 0 tokens</title></rect><rect x="725" y="133" width="12" height="12" rx="2" fill="#0e4429"><title>2026-05-14: 30.3K tokens
Claude Code: 30.3K</title></rect><rect x="725" y="148" width="12" height="12" rx="2" fill="#161b22"><title>2026-05-15: 0 tokens</title></rect><rect x="740" y="58" width="12" height="12" rx="2" fill="#161b22"><title>2026-05-16: 0 tokens</title></rect><rect x="740" y="73" width="12" height="12" rx="2" fill="#161b22"><title>2026-05-17: 0 tokens</title></rect><rect x="740" y="88" width="12" height="12" rx="2" fill="#0e4429"><title>2026-05-18: 885.6K tokens
Codex: 885.6K</title></rect><rect x="740" y="103" width="12" height="12" rx="2" fill="#006d32"><title>2026-05-19: 2.5M tokens
Codex: 2.5M</title></rect><rect x="740" y="118" width="12" height="12" rx="2" fill="#161b22"><title>2026-05-20: 0 tokens</title></rect><rect x="740" y="133" width="12" height="12" rx="2" fill="#161b22"><title>2026-05-21: 0 tokens</title></rect><rect x="740" y="148" width="12" height="12" rx="2" fill="#161b22"><title>2026-05-22: 0 tokens</title></rect><rect x="755" y="58" width="12" height="12" rx="2" fill="#161b22"><title>2026-05-23: 0 tokens</title></rect><rect x="755" y="73" width="12" height="12" rx="2" fill="#006d32"><title>2026-05-24: 2.8M tokens
Codex: 2.8M</title></rect><rect x="755" y="88" width="12" height="12" rx="2" fill="#161b22"><title>2026-05-25: 0 tokens</title></rect><rect x="755" y="103" width="12" height="12" rx="2" fill="#006d32"><title>2026-05-26: 2.3M tokens
Codex: 2.3M</title></rect><rect x="755" y="118" width="12" height="12" rx="2" fill="#006d32"><title>2026-05-27: 2.0M tokens
Codex: 2.0M</title></rect><rect x="755" y="133" width="12" height="12" rx="2" fill="#26a641"><title>2026-05-28: 5.3M tokens
Codex: 5.3M</title></rect><rect x="755" y="148" width="12" height="12" rx="2" fill="#39d353"><title>2026-05-29: 159.5M tokens
Codex: 159.5M</title></rect><rect x="770" y="58" width="12" height="12" rx="2" fill="#39d353"><title>2026-05-30: 184.9M tokens
Codex: 184.9M</title></rect><rect x="770" y="73" width="12" height="12" rx="2" fill="#26a641"><title>2026-05-31: 35.7M tokens
Codex: 35.7M</title></rect><rect x="770" y="88" width="12" height="12" rx="2" fill="#26a641"><title>2026-06-01: 8.4M tokens
Codex: 8.3M
Cursor: 165.0K</title></rect><rect x="770" y="103" width="12" height="12" rx="2" fill="#006d32"><title>2026-06-02: 1.3M tokens
Codex: 1.3M</title></rect><rect x="770" y="118" width="12" height="12" rx="2" fill="#26a641"><title>2026-06-03: 19.9M tokens
Codex: 19.8M
Claude Code: 126.0K</title></rect><rect x="770" y="133" width="12" height="12" rx="2" fill="#26a641"><title>2026-06-04: 36.0M tokens
Codex: 36.0M</title></rect><rect x="770" y="148" width="12" height="12" rx="2" fill="#39d353"><title>2026-06-05: 51.8M tokens
Codex: 51.8M</title></rect><rect x="785" y="58" width="12" height="12" rx="2" fill="#39d353"><title>2026-06-06: 98.3M tokens
Codex: 98.3M</title></rect><rect x="785" y="73" width="12" height="12" rx="2" fill="#39d353"><title>2026-06-07: 49.6M tokens
Codex: 49.6M</title></rect><rect x="785" y="88" width="12" height="12" rx="2" fill="#26a641"><title>2026-06-08: 7.1M tokens
Codex: 7.1M</title></rect><rect x="785" y="103" width="12" height="12" rx="2" fill="#006d32"><title>2026-06-09: 3.7M tokens
Codex: 3.7M</title></rect><rect x="785" y="118" width="12" height="12" rx="2" fill="#39d353"><title>2026-06-10: 148.4M tokens
Codex: 148.3M
Custom: 15.4K</title></rect><rect x="785" y="133" width="12" height="12" rx="2" fill="#39d353"><title>2026-06-11: 199.8M tokens
Codex: 199.8M
Custom: 17.5K</title></rect><rect x="785" y="148" width="12" height="12" rx="2" fill="#006d32"><title>2026-06-12: 4.9M tokens
Codex: 4.9M</title></rect><rect x="800" y="58" width="12" height="12" rx="2" fill="#26a641"><title>2026-06-13: 16.3M tokens
Codex: 16.3M</title></rect>
  
  <text x="20" y="169" fill="#8b949e" font-size="10" font-family="system-ui, sans-serif">Less</text>
  <rect x="20" y="175" width="12" height="12" rx="2" fill="#161b22"/><rect x="35" y="175" width="12" height="12" rx="2" fill="#0e4429"/><rect x="50" y="175" width="12" height="12" rx="2" fill="#006d32"/><rect x="65" y="175" width="12" height="12" rx="2" fill="#26a641"/><rect x="80" y="175" width="12" height="12" rx="2" fill="#39d353"/>
  <text x="103" y="178" fill="#8b949e" font-size="10" font-family="system-ui, sans-serif">More</text>
  <g transform="translate(835, 58)">
    <text fill="#e6edf3" font-size="14" font-weight="600" font-family="system-ui, sans-serif">Stats</text>
    <text y="24" fill="#8b949e" font-size="12" font-family="system-ui, sans-serif">Total tokens</text>
    <text y="42" fill="#e6edf3" font-size="20" font-weight="700" font-family="system-ui, sans-serif">1063.8M</text>
    <text y="68" fill="#8b949e" font-size="12" font-family="system-ui, sans-serif">Active days</text>
    <text y="86" fill="#e6edf3" font-size="16" font-family="system-ui, sans-serif">31</text>
    <text y="112" fill="#8b949e" font-size="12" font-family="system-ui, sans-serif">Current streak</text>
    <text y="130" fill="#e6edf3" font-size="16" font-family="system-ui, sans-serif">19 days</text>
    <text y="156" fill="#8b949e" font-size="12" font-family="system-ui, sans-serif">Longest streak</text>
    <text y="174" fill="#e6edf3" font-size="16" font-family="system-ui, sans-serif">19 days</text>
    <text y="206" fill="#8b949e" font-size="12" font-family="system-ui, sans-serif">Platforms tracked</text>
    <text y="224" fill="#e6edf3" font-size="16" font-family="system-ui, sans-serif">4</text>
  </g>
  <text x="20" y="211" fill="#e6edf3" font-size="12" font-weight="600" font-family="system-ui, sans-serif">Platform Usage</text>
  <text x="20" y="235" fill="#e6edf3" font-size="11" font-family="system-ui, sans-serif">Codex</text>
  <rect x="112" y="227" width="599" height="10" rx="3" fill="#30363d"/>
  <rect x="112" y="227" width="599" height="10" rx="3" fill="#10b981"><title>Codex: 1063.1M (99.9%)</title></rect>
  <text x="719" y="235" fill="#8b949e" font-size="10" font-family="system-ui, sans-serif">1063.1M (99.9%)</text>
  <text x="20" y="265" fill="#e6edf3" font-size="11" font-family="system-ui, sans-serif">Cursor</text>
  <rect x="112" y="257" width="599" height="10" rx="3" fill="#30363d"/>
  <rect x="112" y="257" width="3" height="10" rx="3" fill="#a855f7"><title>Cursor: 566.7K (0.1%)</title></rect>
  <text x="719" y="265" fill="#8b949e" font-size="10" font-family="system-ui, sans-serif">566.7K (0.1%)</text>
  <text x="20" y="295" fill="#e6edf3" font-size="11" font-family="system-ui, sans-serif">Claude Code</text>
  <rect x="112" y="287" width="599" height="10" rx="3" fill="#30363d"/>
  <rect x="112" y="287" width="3" height="10" rx="3" fill="#f97316"><title>Claude Code: 173.1K (0.0%)</title></rect>
  <text x="719" y="295" fill="#8b949e" font-size="10" font-family="system-ui, sans-serif">173.1K (0.0%)</text>
  <text x="20" y="325" fill="#e6edf3" font-size="11" font-family="system-ui, sans-serif">Custom</text>
  <rect x="112" y="317" width="599" height="10" rx="3" fill="#30363d"/>
  <rect x="112" y="317" width="3" height="10" rx="3" fill="#94a3b8"><title>Custom: 32.9K (0.0%)</title></rect>
  <text x="719" y="325" fill="#8b949e" font-size="10" font-family="system-ui, sans-serif">32.9K (0.0%)</text>
</svg>